# xmcd
#
# Track frame offsets: 
#        150
#        16378
#        33747
#        36840
#        41355
#        47043
#        69195
#        84272
#        96940
#        115595
#        119065
#        127165
#        147700
#        160700
#        164945
#        169810
#        184548
#        205905
#
# Disc length: 2938 seconds
#
# Revision: 0
# Processed by: cddbd v1.5.2PL0 Copyright (c) Steve Scherf et al.
# Submitted via: ExactAudioCopy v1.0b3
#
DISCID=010b7812
DTITLE=欧陽菲菲 - 雨の御堂筋 and 欧陽菲菲 イン・ベラミ Disc 2 欧陽菲菲 イン・ベラミ TYCN-60008-9
DYEAR=1900
DGENRE=Blues
TTITLE0=雨の御堂筋 
TTITLE1=雨のエア・ポート 
TTITLE2=港町ブルース (中国語)
TTITLE3=逢わずに愛して (中国語) 
TTITLE4=四つのお願い (中国語) 
TTITLE5=おしゃべりコーナー
TTITLE6=この胸のときめきを 
TTITLE7=オー・シャンゼリゼ 
TTITLE8=別れの朝 
TTITLE9=夜咲花 (中国語) 
TTITLE10=何日君再来 (中国語) 
TTITLE11=明日に架ける橋 
TTITLE12=お座敷小唄 
TTITLE13=雨がやんだら 
TTITLE14=ブルーライト・ヨコハマ 
TTITLE15=恋の奴隷 
TTITLE16=恋の追跡(ラヴ・チェイス) 
TTITLE17=雨の御堂筋 
EXTD=
EXTT0=
EXTT1=
EXTT2=
EXTT3=
EXTT4=
EXTT5=
EXTT6=
EXTT7=
EXTT8=
EXTT9=
EXTT10=
EXTT11=
EXTT12=
EXTT13=
EXTT14=
EXTT15=
EXTT16=
EXTT17=
PLAYORDER=
